<svg width="417" height="144" viewBox="0 0 417 144" fill="none" xmlns="http://www.w3.org/2000/svg">
<path d="M169.648 17.003L203.969 16.9687L203.978 26.0547L179.161 26.0794L179.17 34.6386L202.469 34.6154L202.478 43.7013L179.179 43.7246L179.199 63.0816L169.694 63.0911L169.648 17.003Z" fill="white"/>
<path d="M209.239 16.9635L218.743 16.954L218.79 63.0421L209.285 63.0516L209.239 16.9635Z" fill="white"/>
<path d="M248.285 63.7369C243.488 63.7417 239.263 62.8022 235.609 60.9184C231.955 58.9908 229.114 56.2502 227.087 52.6969C225.059 49.0997 224.043 44.843 224.038 39.9269C224.033 35.0109 225.041 30.7522 227.061 27.1509C229.082 23.5057 231.917 20.7376 235.567 18.8466C239.261 16.9116 243.485 15.9417 248.237 15.9369C254.441 15.9308 259.635 17.4838 263.818 20.5961C268.045 23.7083 270.734 28.073 271.883 33.6902L261.983 33.7001C261.232 30.8917 259.69 28.7205 257.356 27.1865C255.023 25.6526 251.986 24.8875 248.246 24.8912C243.362 24.8961 239.711 26.1507 237.293 28.655C234.875 31.1594 233.669 34.9135 233.674 39.9173C233.679 44.8773 234.871 48.5851 237.25 51.0407C239.672 53.4964 243.347 54.7217 248.276 54.7168C255.8 54.7093 260.373 51.8517 261.996 46.1439L271.83 46.1341C270.384 52.2367 267.55 56.6947 263.329 59.5081C259.152 62.3215 254.137 63.7311 248.285 63.7369Z" fill="white"/>
<path d="M277.142 16.8957L286.646 16.8862L286.664 34.5314L308.576 34.5095L308.559 16.8644L318.063 16.8549L318.109 62.943L308.605 62.9525L308.586 43.7272L286.673 43.749L286.692 62.9743L277.188 62.9838L277.142 16.8957Z" fill="white"/>
<path d="M344.252 16.8288L351.908 16.8211L373.735 62.8875L363.175 62.898L357.486 50.6574L338.543 50.6763L332.879 62.9283L322.451 62.9387L344.252 16.8288ZM353.385 41.7073L347.961 30.1248L342.693 41.7179L353.385 41.7073Z" fill="white"/>
<path d="M396.107 63.5894C388.847 63.5967 383.543 62.1315 380.196 59.194C376.849 56.2565 375.348 52.0442 375.695 46.5572L385.661 46.4156C385.663 48.5663 385.995 50.234 386.656 51.4184C387.361 52.5589 388.44 53.3699 389.893 53.8513C391.389 54.3326 393.458 54.572 396.098 54.5693C399.574 54.5659 402.148 54.1244 403.819 53.2448C405.534 52.3652 406.391 51.0476 406.389 49.2918C406.388 48.1506 406.189 47.2949 405.792 46.7247C405.44 46.1544 404.669 45.6943 403.481 45.3443C402.292 44.9505 400.4 44.5793 397.803 44.2307L391.928 43.3807C386.559 42.6398 382.488 41.2173 379.714 39.1132C376.939 36.9652 375.55 33.7624 375.546 29.5047C375.542 25.2031 377.254 21.8655 380.684 19.4919C384.114 17.1182 388.887 15.8844 395.003 15.7905C401.779 15.8277 406.797 17.2492 410.056 20.0551C413.315 22.8611 414.815 26.8978 414.556 32.1652L404.722 32.2409C404.719 29.3878 403.925 27.4134 402.34 26.3176C400.799 25.2218 398.378 24.6756 395.078 24.6789C388.39 24.6856 385.047 26.2471 385.05 29.3635C385.051 30.417 385.228 31.2288 385.581 31.7991C385.977 32.3254 386.726 32.7636 387.826 33.1137C388.926 33.4637 390.665 33.8131 393.041 34.1619L399.246 35.0775C405.055 35.9057 409.325 37.4377 412.055 39.6735C414.83 41.8654 416.219 45.0902 416.223 49.3479C416.228 53.7372 414.471 57.2066 410.954 59.7559C407.436 62.3052 402.509 63.583 396.173 63.5894L396.107 63.5894Z" fill="white"/>
<path d="M169.709 78.1956L177.762 78.1875L201.222 107.99L201.192 78.1642L210.499 78.1549L210.545 124.243L202.625 124.251L179.098 94.5804L179.128 124.274L169.756 124.284L169.709 78.1956Z" fill="white"/>
<path d="M215.81 78.1496L250.66 78.1148L250.669 87.2008L225.324 87.226L225.332 95.7853L249.621 95.761L249.63 104.781L225.342 104.805L225.352 115.208L250.697 115.183L250.706 124.203L215.857 124.238L215.81 78.1496Z" fill="white"/>
<path d="M255.402 78.1101L265.764 78.0998L275.034 107.587L284.509 78.081L292.891 78.0727L302.359 107.494L311.504 78.0541L321.602 78.044L306.402 124.147L298.217 124.156L288.551 94.0762L279.011 124.175L270.826 124.183L255.402 78.1101Z" fill="white"/>
<path d="M344.899 125.291C337.608 125.291 332.284 123.835 328.926 120.922C325.568 118.01 324.065 113.836 324.419 108.402L334.427 108.272C334.427 110.402 334.758 112.054 335.421 113.228C336.128 114.358 337.211 115.162 338.669 115.64C340.171 116.119 342.248 116.358 344.899 116.358C348.39 116.358 350.975 115.923 352.654 115.054C354.377 114.184 355.239 112.88 355.239 111.141C355.239 110.011 355.04 109.163 354.642 108.598C354.289 108.033 353.515 107.576 352.322 107.228C351.129 106.837 349.229 106.468 346.622 106.12L340.723 105.272C335.333 104.533 331.245 103.12 328.462 101.033C325.678 98.9032 324.286 95.7296 324.286 91.5127C324.286 87.2523 326.009 83.9483 329.456 81.6008C332.902 79.2532 337.697 78.036 343.839 77.949C350.643 77.9925 355.681 79.4054 358.95 82.1877C362.22 84.97 363.723 88.9695 363.457 94.1863L353.582 94.2515C353.582 91.4257 352.786 89.4694 351.196 88.3826C349.649 87.2958 347.219 86.7524 343.905 86.7524C337.189 86.7524 333.83 88.2957 333.83 91.3823C333.83 92.4256 334.007 93.2299 334.361 93.795C334.758 94.3167 335.509 94.7515 336.614 95.0992C337.719 95.447 339.464 95.7948 341.85 96.1426L348.081 97.0555C353.913 97.8815 358.199 99.4031 360.939 101.62C363.723 103.794 365.114 106.989 365.114 111.206C365.114 115.553 363.347 118.988 359.812 121.509C356.277 124.031 351.328 125.291 344.965 125.291H344.899Z" fill="white"/>
<path d="M139.009 102.72C131.932 117.516 119.958 129.494 105.057 136.681C90.1573 143.868 73.2201 145.835 57.0352 142.258C40.8504 138.681 26.383 129.774 16.0159 117.004C5.64873 104.233 0 88.3604 0 72C0 55.6396 5.64873 39.767 16.0159 26.9964C26.383 14.2257 40.8504 5.31852 57.0352 1.74178C73.2201 -1.83496 90.1573 0.13203 105.057 7.3188C119.958 14.5056 131.932 26.4835 139.009 41.28C132.228 30.4104 122.035 22.0208 109.98 17.3858C97.9245 12.7507 84.6648 12.1234 72.215 15.5992C59.7651 19.0749 48.8056 26.4638 41.0011 36.6435C33.1965 46.8231 28.9735 59.2372 28.9735 72C28.9735 84.7628 33.1965 97.1769 41.0011 107.357C48.8056 117.536 59.7651 124.925 72.215 128.401C84.6648 131.877 97.9245 131.249 109.98 126.614C122.035 121.979 132.228 113.59 139.009 102.72ZM88.4575 16.9412C78.377 16.9562 68.4897 19.6691 59.8493 24.7907C51.209 29.9124 44.1396 37.2507 39.3946 46.0236C44.9608 38.3892 52.8386 32.6931 61.8946 29.7548C70.9506 26.8164 80.7182 26.7873 89.7921 29.6715C98.866 32.5558 106.779 38.2047 112.391 45.8057C118.004 53.4068 121.028 62.5681 121.028 71.9718C121.028 81.3754 118.004 90.5367 112.391 98.1378C106.779 105.739 98.866 111.388 89.7921 114.272C80.7182 117.156 70.9506 117.127 61.8946 114.189C52.8386 111.25 44.9608 105.554 39.3946 97.92C44.0671 106.451 50.9473 113.609 59.3352 118.666C67.723 123.722 77.3192 126.497 87.1472 126.707C96.9752 126.917 106.684 124.556 115.286 119.862C123.889 115.169 131.077 108.312 136.12 99.9886C141.163 91.6652 143.88 82.1726 143.996 72.4767C144.112 62.7809 141.622 53.2278 136.779 44.7895C131.936 36.3513 124.913 29.3291 116.426 24.4375C107.938 19.5458 98.2878 16.9594 88.4575 16.9412ZM78.267 98.88C79.8456 95.6591 81.7646 92.6116 83.992 89.7882C86.2989 86.8231 88.8453 84.047 91.6062 81.487C94.8892 78.3974 98.5195 75.688 102.426 73.4118L104.716 72.0565L102.426 70.7012C98.5264 68.371 94.8979 65.6251 91.6062 62.5129C88.8591 59.9397 86.3137 57.1647 83.992 54.2118C81.7915 51.37 79.8743 48.3253 78.267 45.12L76.8358 41.9577L75.4046 45.1765C73.7701 48.3667 71.8544 51.409 69.6796 54.2682C67.3911 57.2313 64.864 60.0074 62.1227 62.5694C58.8987 65.631 55.3475 68.3386 51.5315 70.6447L49.1843 72L51.5315 73.4118C55.463 75.6996 59.1131 78.4283 62.4089 81.5435C65.1638 84.0924 67.6921 86.8696 69.9659 89.8447C72.1693 92.6845 74.0867 95.7295 75.6908 98.9364L77.1221 102.099L78.267 98.88Z" fill="white"/>
</svg>
