<svg enable-background="new 0 0 210 60" viewBox="0 0 210 60" xmlns="http://www.w3.org/2000/svg"><g fill="#009a4d"><path d="m11.63 25.16-2.64-2.64h-6.04v3.5l5.47 5.47-5.43 5.41s-.51 3.09 3.05 6.16l5.59-5.49v10l5.63 3.01v-28.08h-5.63z"/><path d="m2.95 27.62v1.16l2.46 2.58-2.56 2.7v1.16l3.72-3.86z"/><path d="m35.73 18.19v-8.86l-9.71 4.43-8.13-8.17-8.13 8.17-9.72-4.43v8.86h17.84zm-23.76-4.63 5.67-5.77.24-.24.24.24 5.67 5.77h-1.63l-4.27-4.27-4.27 4.27zm3.23.87 2.68-2.7 2.68 2.7-2.68 2.74z"/><path d="m7.54 44.51 2.26-2.2v3.96l.81.61v-6.48l-3.7 3.52z"/><path d="m18.54 22.5v28.07l5.63-3.01v-10l5.59 5.49c3.56-3.09 3.05-6.16 3.05-6.16l-5.43-5.43 5.46-5.46v-3.5h-6.02l-2.64 2.64v-2.64z"/><path d="m32.82 27.62-3.62 3.74 3.72 3.86v-1.16l-2.56-2.7 2.46-2.58z"/><path d="m25.16 46.89.81-.61v-3.96l2.26 2.2.63-.59-3.7-3.52z"/><path d="m17.89 19.41h-17.89v18.7c0 3.31 2.99 7.03 8.88 11.1 4.23 2.93 8.39 4.92 8.58 5l.45.2.45-.2c.18-.08 4.33-2.09 8.58-5 5.89-4.06 8.88-7.78 8.88-11.1v-18.7zm15.85 18.7c0 4.39-8.05 9.8-13.39 12.76-.51.28-.98.53-1.42.77l-1.02.55-1.02-.55c-.45-.22-.93-.49-1.42-.77-5.39-2.97-13.44-8.37-13.44-12.76v-16.67h11.24 3.6 1.02 1.02 3.6 11.24v16.67z"/></g><path d="m61.36 29.62-2.6 2.29 5.87 7.87h4.24zm7.13-9.39h-4.43l-11.26 10.4v-10.4h-3.55v19.54h3.55v-4.73z" fill="#229655"/><path d="m84.36 29.68-2.6 2.29 5.82 7.81h4.24zm7.09-9.45h-4.43l-11.26 10.4v-10.4h-3.56v19.54h3.56v-4.73z" fill="#229655"/><path d="m158.18 29.68-2.6 2.29 5.82 7.81h4.24zm7.09-9.45h-4.43l-11.26 10.4v-10.4h-3.56v19.54h3.56v-4.73z" fill="#e9e9e9"/><path d="m98.72 39.77h-3.56v-19.54h11.57c1.12 0 2.08.19 2.88.58s1.46.89 1.98 1.51.9 1.3 1.14 2.05.36 1.48.36 2.21c0 .72-.12 1.46-.36 2.21s-.62 1.43-1.14 2.05-1.18 1.12-1.98 1.51-1.76.58-2.88.58h-8.01zm0-10.22h7.17c.64 0 1.19-.08 1.62-.25.44-.16.8-.38 1.08-.67.28-.28.48-.6.61-.96.12-.36.19-.73.19-1.1s-.06-.74-.19-1.09c-.12-.35-.33-.67-.61-.95s-.64-.5-1.08-.67c-.44-.16-.98-.25-1.62-.25h-7.17z" fill="#e9e9e9"/><path d="m169.11 20.23h17.62v3.33h-14.03v4.48h11.6v3.36h-11.6v5.01h14.03v3.36h-17.62z" fill="#e9e9e9"/><path d="m201.64 33.05h-6.74v6.72h-3.55v-19.54h11.94c1.12 0 2.09.19 2.9.58.81.38 1.48.89 2.01 1.51s.92 1.31 1.17 2.07.37 1.51.37 2.26c0 1.21-.35 2.36-1.06 3.45s-1.79 1.9-3.24 2.43l4.55 7.25h-4.09zm-6.73-3.37h7.55c1.31 0 2.24-.3 2.78-.91s.81-1.32.81-2.14c0-.4-.06-.78-.19-1.16-.12-.37-.33-.7-.62-.98s-.67-.5-1.12-.67c-.46-.16-1.01-.25-1.65-.25h-7.55v6.11z" fill="#e9e9e9"/><path d="m134.87 39.96h-12.2c-2.64 0-4.8-2.15-4.8-4.8v-10.15c0-2.64 2.15-4.8 4.8-4.8h12.2c2.64 0 4.8 2.15 4.8 4.8v10.16c-.01 2.64-2.16 4.79-4.8 4.79zm-12.2-16.29c-.74 0-1.34.6-1.34 1.34v10.16c0 .74.6 1.34 1.34 1.34h12.2c.74 0 1.34-.6 1.34-1.34v-10.16c0-.74-.6-1.34-1.34-1.34z" fill="#fff"/></svg>